REM MD5 433f4de8f83ba1624736a292a1f1f7d9
FILE "Wares 1092 - Souheiden (Japan).bin" BINARY
  TRACK 01 MODE2/2352
    INDEX 01 00:00:00
  TRACK 02 AUDIO
    INDEX 00 46:15:13
    INDEX 01 46:17:13
  TRACK 03 AUDIO
    INDEX 00 48:55:67
    INDEX 01 48:57:67
REM LEADOUT 51:36:46
